<mxfile host="app.diagrams.net" agent="Mozilla/5.0 (Windows NT 10.0; Win64; x64) AppleWebKit/537.36 (KHTML, like Gecko) Chrome/132.0.0.0 Safari/537.36" version="26.0.7">
  <diagram name="Page-1" id="hgSxC4WbpS3MBjaebY4D">
    <mxGraphModel dx="1107" dy="429" grid="1" gridSize="10" guides="1" tooltips="1" connect="1" arrows="1" fold="1" page="1" pageScale="1" pageWidth="850" pageHeight="1100" math="0" shadow="0">
      <root>
        <mxCell id="0" />
        <mxCell id="1" parent="0" />
        <mxCell id="e47RRsd97L0ZJmCScvxN-1" style="edgeStyle=orthogonalEdgeStyle;rounded=0;orthogonalLoop=1;jettySize=auto;html=1;exitX=1;exitY=0.5;exitDx=0;exitDy=0;entryX=0.375;entryY=0;entryDx=0;entryDy=0;entryPerimeter=0;" edge="1" parent="1" source="e47RRsd97L0ZJmCScvxN-2" target="e47RRsd97L0ZJmCScvxN-55">
          <mxGeometry relative="1" as="geometry">
            <mxPoint x="670" y="235" as="targetPoint" />
            <Array as="points">
              <mxPoint x="530" y="235" />
              <mxPoint x="530" y="236" />
              <mxPoint x="670" y="236" />
            </Array>
          </mxGeometry>
        </mxCell>
        <mxCell id="e47RRsd97L0ZJmCScvxN-2" value="" style="ellipse;whiteSpace=wrap;html=1;aspect=fixed;" vertex="1" parent="1">
          <mxGeometry x="300" y="190" width="90" height="90" as="geometry" />
        </mxCell>
        <mxCell id="e47RRsd97L0ZJmCScvxN-3" value="" style="ellipse;whiteSpace=wrap;html=1;aspect=fixed;" vertex="1" parent="1">
          <mxGeometry x="300" y="330" width="90" height="90" as="geometry" />
        </mxCell>
        <mxCell id="e47RRsd97L0ZJmCScvxN-4" style="edgeStyle=orthogonalEdgeStyle;rounded=0;orthogonalLoop=1;jettySize=auto;html=1;exitX=1;exitY=0.5;exitDx=0;exitDy=0;" edge="1" parent="1" source="e47RRsd97L0ZJmCScvxN-5">
          <mxGeometry relative="1" as="geometry">
            <mxPoint x="570" y="520" as="targetPoint" />
          </mxGeometry>
        </mxCell>
        <mxCell id="e47RRsd97L0ZJmCScvxN-5" value="" style="ellipse;whiteSpace=wrap;html=1;aspect=fixed;" vertex="1" parent="1">
          <mxGeometry x="300" y="470" width="100" height="100" as="geometry" />
        </mxCell>
        <mxCell id="e47RRsd97L0ZJmCScvxN-6" value="" style="ellipse;whiteSpace=wrap;html=1;aspect=fixed;" vertex="1" parent="1">
          <mxGeometry x="307.5" y="600" width="100" height="100" as="geometry" />
        </mxCell>
        <mxCell id="e47RRsd97L0ZJmCScvxN-7" value="" style="ellipse;whiteSpace=wrap;html=1;aspect=fixed;" vertex="1" parent="1">
          <mxGeometry x="310" y="730" width="100" height="100" as="geometry" />
        </mxCell>
        <mxCell id="e47RRsd97L0ZJmCScvxN-8" value="1.0 register" style="text;html=1;align=center;verticalAlign=middle;whiteSpace=wrap;rounded=0;" vertex="1" parent="1">
          <mxGeometry x="310" y="220" width="70" height="30" as="geometry" />
        </mxCell>
        <mxCell id="e47RRsd97L0ZJmCScvxN-9" style="edgeStyle=orthogonalEdgeStyle;rounded=0;orthogonalLoop=1;jettySize=auto;html=1;entryX=1;entryY=0;entryDx=0;entryDy=0;" edge="1" parent="1" source="e47RRsd97L0ZJmCScvxN-10" target="e47RRsd97L0ZJmCScvxN-19">
          <mxGeometry relative="1" as="geometry" />
        </mxCell>
        <mxCell id="e47RRsd97L0ZJmCScvxN-10" value="1.1 Login" style="text;html=1;align=center;verticalAlign=middle;whiteSpace=wrap;rounded=0;" vertex="1" parent="1">
          <mxGeometry x="307.5" y="355" width="75" height="40" as="geometry" />
        </mxCell>
        <mxCell id="e47RRsd97L0ZJmCScvxN-11" style="edgeStyle=orthogonalEdgeStyle;rounded=0;orthogonalLoop=1;jettySize=auto;html=1;entryX=1;entryY=0.5;entryDx=0;entryDy=0;" edge="1" parent="1" source="e47RRsd97L0ZJmCScvxN-12" target="e47RRsd97L0ZJmCScvxN-19">
          <mxGeometry relative="1" as="geometry">
            <Array as="points">
              <mxPoint x="150" y="528" />
            </Array>
          </mxGeometry>
        </mxCell>
        <mxCell id="e47RRsd97L0ZJmCScvxN-12" value="&lt;div&gt;&lt;br&gt;&lt;/div&gt;&lt;div&gt;&lt;br&gt;&lt;/div&gt;1.2 View&lt;div&gt;medicine&amp;nbsp;&lt;div&gt;&lt;p style=&quot;margin-left:27.95pt;line-height:115%&quot; class=&quot;MsoNormal&quot;&gt;&lt;br&gt;&lt;/p&gt;&lt;/div&gt;&lt;/div&gt;" style="text;html=1;align=center;verticalAlign=middle;whiteSpace=wrap;rounded=0;" vertex="1" parent="1">
          <mxGeometry x="310" y="505" width="80" height="45" as="geometry" />
        </mxCell>
        <mxCell id="e47RRsd97L0ZJmCScvxN-13" value="1.3 orders&lt;div&gt;medicine&lt;/div&gt;" style="text;html=1;align=center;verticalAlign=middle;whiteSpace=wrap;rounded=0;" vertex="1" parent="1">
          <mxGeometry x="312" y="632.5" width="88" height="35" as="geometry" />
        </mxCell>
        <mxCell id="e47RRsd97L0ZJmCScvxN-14" style="edgeStyle=orthogonalEdgeStyle;rounded=0;orthogonalLoop=1;jettySize=auto;html=1;" edge="1" parent="1" source="e47RRsd97L0ZJmCScvxN-15">
          <mxGeometry relative="1" as="geometry">
            <mxPoint x="60" y="570" as="targetPoint" />
          </mxGeometry>
        </mxCell>
        <mxCell id="e47RRsd97L0ZJmCScvxN-15" value="1.4 payment" style="text;html=1;align=center;verticalAlign=middle;whiteSpace=wrap;rounded=0;" vertex="1" parent="1">
          <mxGeometry x="313" y="755" width="86" height="50" as="geometry" />
        </mxCell>
        <mxCell id="e47RRsd97L0ZJmCScvxN-16" style="edgeStyle=orthogonalEdgeStyle;rounded=0;orthogonalLoop=1;jettySize=auto;html=1;entryX=0;entryY=0.333;entryDx=0;entryDy=0;entryPerimeter=0;exitX=0.142;exitY=0.032;exitDx=0;exitDy=0;exitPerimeter=0;" edge="1" parent="1" source="e47RRsd97L0ZJmCScvxN-19">
          <mxGeometry relative="1" as="geometry">
            <mxPoint x="57.5" y="492.5" as="sourcePoint" />
            <mxPoint x="307.5" y="212.47000000000003" as="targetPoint" />
            <Array as="points">
              <mxPoint x="58" y="502" />
              <mxPoint x="58" y="213" />
            </Array>
          </mxGeometry>
        </mxCell>
        <mxCell id="e47RRsd97L0ZJmCScvxN-17" style="edgeStyle=orthogonalEdgeStyle;rounded=0;orthogonalLoop=1;jettySize=auto;html=1;exitX=0.75;exitY=0;exitDx=0;exitDy=0;entryX=0.022;entryY=0.258;entryDx=0;entryDy=0;entryPerimeter=0;" edge="1" parent="1" source="e47RRsd97L0ZJmCScvxN-19" target="e47RRsd97L0ZJmCScvxN-3">
          <mxGeometry relative="1" as="geometry">
            <mxPoint x="280" y="360" as="targetPoint" />
            <Array as="points">
              <mxPoint x="123" y="353" />
            </Array>
          </mxGeometry>
        </mxCell>
        <mxCell id="e47RRsd97L0ZJmCScvxN-18" style="edgeStyle=orthogonalEdgeStyle;rounded=0;orthogonalLoop=1;jettySize=auto;html=1;" edge="1" parent="1" source="e47RRsd97L0ZJmCScvxN-19">
          <mxGeometry relative="1" as="geometry">
            <mxPoint x="300" y="760" as="targetPoint" />
            <Array as="points">
              <mxPoint x="95" y="760" />
            </Array>
          </mxGeometry>
        </mxCell>
        <mxCell id="e47RRsd97L0ZJmCScvxN-19" value="" style="rounded=0;whiteSpace=wrap;html=1;" vertex="1" parent="1">
          <mxGeometry x="40" y="500" width="110" height="62.5" as="geometry" />
        </mxCell>
        <mxCell id="e47RRsd97L0ZJmCScvxN-20" value="Customer" style="text;html=1;align=center;verticalAlign=middle;whiteSpace=wrap;rounded=0;" vertex="1" parent="1">
          <mxGeometry x="60" y="520" width="60" height="30" as="geometry" />
        </mxCell>
        <mxCell id="e47RRsd97L0ZJmCScvxN-21" style="edgeStyle=orthogonalEdgeStyle;rounded=0;orthogonalLoop=1;jettySize=auto;html=1;exitX=1;exitY=0.25;exitDx=0;exitDy=0;entryX=0.046;entryY=0.39;entryDx=0;entryDy=0;entryPerimeter=0;" edge="1" parent="1" source="e47RRsd97L0ZJmCScvxN-19" target="e47RRsd97L0ZJmCScvxN-5">
          <mxGeometry relative="1" as="geometry">
            <Array as="points">
              <mxPoint x="150" y="509" />
            </Array>
          </mxGeometry>
        </mxCell>
        <mxCell id="e47RRsd97L0ZJmCScvxN-22" value="product id" style="text;html=1;align=center;verticalAlign=middle;whiteSpace=wrap;rounded=0;" vertex="1" parent="1">
          <mxGeometry x="170" y="480" width="100" height="35" as="geometry" />
        </mxCell>
        <mxCell id="e47RRsd97L0ZJmCScvxN-23" value="medicine details&amp;nbsp;" style="text;html=1;align=center;verticalAlign=middle;whiteSpace=wrap;rounded=0;" vertex="1" parent="1">
          <mxGeometry x="190" y="520" width="100" height="30" as="geometry" />
        </mxCell>
        <mxCell id="e47RRsd97L0ZJmCScvxN-24" value="" style="endArrow=classic;html=1;rounded=0;" edge="1" parent="1">
          <mxGeometry width="50" height="50" relative="1" as="geometry">
            <mxPoint x="570" y="540" as="sourcePoint" />
            <mxPoint x="395" y="540" as="targetPoint" />
          </mxGeometry>
        </mxCell>
        <mxCell id="e47RRsd97L0ZJmCScvxN-25" value="medicine details&amp;nbsp;" style="text;html=1;align=center;verticalAlign=middle;whiteSpace=wrap;rounded=0;" vertex="1" parent="1">
          <mxGeometry x="430" y="535" width="100" height="30" as="geometry" />
        </mxCell>
        <mxCell id="e47RRsd97L0ZJmCScvxN-26" value="product id" style="text;html=1;align=center;verticalAlign=middle;whiteSpace=wrap;rounded=0;" vertex="1" parent="1">
          <mxGeometry x="410" y="492.5" width="100" height="35" as="geometry" />
        </mxCell>
        <mxCell id="e47RRsd97L0ZJmCScvxN-27" style="edgeStyle=orthogonalEdgeStyle;rounded=0;orthogonalLoop=1;jettySize=auto;html=1;exitX=0;exitY=0.5;exitDx=0;exitDy=0;" edge="1" parent="1" source="e47RRsd97L0ZJmCScvxN-2">
          <mxGeometry relative="1" as="geometry">
            <mxPoint x="100" y="500" as="targetPoint" />
            <Array as="points">
              <mxPoint x="300" y="240" />
              <mxPoint x="100" y="240" />
              <mxPoint x="100" y="500" />
            </Array>
          </mxGeometry>
        </mxCell>
        <mxCell id="e47RRsd97L0ZJmCScvxN-28" value="request to Login" style="text;html=1;align=center;verticalAlign=middle;whiteSpace=wrap;rounded=0;" vertex="1" parent="1">
          <mxGeometry x="110" y="190" width="110" height="20" as="geometry" />
        </mxCell>
        <mxCell id="e47RRsd97L0ZJmCScvxN-29" value="respone accept /reject" style="text;html=1;align=center;verticalAlign=middle;whiteSpace=wrap;rounded=0;" vertex="1" parent="1">
          <mxGeometry x="125" y="240" width="140" height="20" as="geometry" />
        </mxCell>
        <mxCell id="e47RRsd97L0ZJmCScvxN-30" value="User password" style="text;html=1;align=center;verticalAlign=middle;whiteSpace=wrap;rounded=0;" vertex="1" parent="1">
          <mxGeometry x="170" y="330" width="90" height="25" as="geometry" />
        </mxCell>
        <mxCell id="e47RRsd97L0ZJmCScvxN-31" value="Vaild / invalid" style="text;html=1;align=center;verticalAlign=middle;whiteSpace=wrap;rounded=0;" vertex="1" parent="1">
          <mxGeometry x="175" y="370" width="90" height="25" as="geometry" />
        </mxCell>
        <mxCell id="e47RRsd97L0ZJmCScvxN-35" value="" style="endArrow=classic;html=1;rounded=0;" edge="1" parent="1">
          <mxGeometry width="50" height="50" relative="1" as="geometry">
            <mxPoint x="570" y="668" as="sourcePoint" />
            <mxPoint x="410" y="667.5" as="targetPoint" />
          </mxGeometry>
        </mxCell>
        <mxCell id="e47RRsd97L0ZJmCScvxN-36" value="" style="endArrow=classic;html=1;rounded=0;" edge="1" parent="1">
          <mxGeometry width="50" height="50" relative="1" as="geometry">
            <mxPoint x="580" y="790" as="sourcePoint" />
            <mxPoint x="410" y="790" as="targetPoint" />
          </mxGeometry>
        </mxCell>
        <mxCell id="e47RRsd97L0ZJmCScvxN-37" style="edgeStyle=orthogonalEdgeStyle;rounded=0;orthogonalLoop=1;jettySize=auto;html=1;exitX=1;exitY=0.5;exitDx=0;exitDy=0;" edge="1" parent="1">
          <mxGeometry relative="1" as="geometry">
            <mxPoint x="580" y="640" as="targetPoint" />
            <mxPoint x="410" y="640" as="sourcePoint" />
          </mxGeometry>
        </mxCell>
        <mxCell id="e47RRsd97L0ZJmCScvxN-38" style="edgeStyle=orthogonalEdgeStyle;rounded=0;orthogonalLoop=1;jettySize=auto;html=1;exitX=1;exitY=0.5;exitDx=0;exitDy=0;" edge="1" parent="1">
          <mxGeometry relative="1" as="geometry">
            <mxPoint x="580" y="760" as="targetPoint" />
            <mxPoint x="410" y="760" as="sourcePoint" />
          </mxGeometry>
        </mxCell>
        <mxCell id="e47RRsd97L0ZJmCScvxN-39" style="edgeStyle=orthogonalEdgeStyle;rounded=0;orthogonalLoop=1;jettySize=auto;html=1;entryX=0.68;entryY=0.966;entryDx=0;entryDy=0;entryPerimeter=0;" edge="1" parent="1" source="e47RRsd97L0ZJmCScvxN-13" target="e47RRsd97L0ZJmCScvxN-19">
          <mxGeometry relative="1" as="geometry">
            <Array as="points">
              <mxPoint x="115" y="660" />
            </Array>
          </mxGeometry>
        </mxCell>
        <mxCell id="e47RRsd97L0ZJmCScvxN-40" value="" style="endArrow=classic;html=1;rounded=0;exitX=0.818;exitY=0.96;exitDx=0;exitDy=0;exitPerimeter=0;" edge="1" parent="1" source="e47RRsd97L0ZJmCScvxN-19">
          <mxGeometry width="50" height="50" relative="1" as="geometry">
            <mxPoint x="140" y="640" as="sourcePoint" />
            <mxPoint x="307.5" y="640" as="targetPoint" />
            <Array as="points">
              <mxPoint x="130" y="600" />
              <mxPoint x="130" y="640" />
            </Array>
          </mxGeometry>
        </mxCell>
        <mxCell id="e47RRsd97L0ZJmCScvxN-41" value="order id" style="text;html=1;align=center;verticalAlign=middle;whiteSpace=wrap;rounded=0;" vertex="1" parent="1">
          <mxGeometry x="190" y="610" width="60" height="30" as="geometry" />
        </mxCell>
        <mxCell id="e47RRsd97L0ZJmCScvxN-42" value="order details" style="text;html=1;align=center;verticalAlign=middle;whiteSpace=wrap;rounded=0;" vertex="1" parent="1">
          <mxGeometry x="175" y="660" width="90" height="30" as="geometry" />
        </mxCell>
        <mxCell id="e47RRsd97L0ZJmCScvxN-43" value="order details" style="text;html=1;align=center;verticalAlign=middle;whiteSpace=wrap;rounded=0;" vertex="1" parent="1">
          <mxGeometry x="450" y="667.5" width="90" height="30" as="geometry" />
        </mxCell>
        <mxCell id="e47RRsd97L0ZJmCScvxN-44" value="order id" style="text;html=1;align=center;verticalAlign=middle;whiteSpace=wrap;rounded=0;" vertex="1" parent="1">
          <mxGeometry x="450" y="610" width="60" height="30" as="geometry" />
        </mxCell>
        <mxCell id="e47RRsd97L0ZJmCScvxN-45" value="Payment&amp;nbsp; id" style="text;html=1;align=center;verticalAlign=middle;whiteSpace=wrap;rounded=0;" vertex="1" parent="1">
          <mxGeometry x="180" y="730" width="70" height="30" as="geometry" />
        </mxCell>
        <mxCell id="e47RRsd97L0ZJmCScvxN-46" value="Payment&amp;nbsp; details" style="text;html=1;align=center;verticalAlign=middle;whiteSpace=wrap;rounded=0;" vertex="1" parent="1">
          <mxGeometry x="170" y="780" width="100" height="25" as="geometry" />
        </mxCell>
        <mxCell id="e47RRsd97L0ZJmCScvxN-47" value="Payment&amp;nbsp; details" style="text;html=1;align=center;verticalAlign=middle;whiteSpace=wrap;rounded=0;" vertex="1" parent="1">
          <mxGeometry x="450" y="790" width="100" height="20" as="geometry" />
        </mxCell>
        <mxCell id="e47RRsd97L0ZJmCScvxN-48" value="Payment&amp;nbsp; id" style="text;html=1;align=center;verticalAlign=middle;whiteSpace=wrap;rounded=0;" vertex="1" parent="1">
          <mxGeometry x="450" y="730" width="70" height="30" as="geometry" />
        </mxCell>
        <mxCell id="e47RRsd97L0ZJmCScvxN-51" value="user details" style="text;html=1;align=center;verticalAlign=middle;whiteSpace=wrap;rounded=0;" vertex="1" parent="1">
          <mxGeometry x="407.5" y="220" width="120" height="40" as="geometry" />
        </mxCell>
        <mxCell id="e47RRsd97L0ZJmCScvxN-52" value="responce" style="text;html=1;align=center;verticalAlign=middle;whiteSpace=wrap;rounded=0;" vertex="1" parent="1">
          <mxGeometry x="430" y="360" width="60" height="30" as="geometry" />
        </mxCell>
        <mxCell id="e47RRsd97L0ZJmCScvxN-53" value="" style="endArrow=none;html=1;rounded=0;" edge="1" parent="1">
          <mxGeometry width="50" height="50" relative="1" as="geometry">
            <mxPoint x="635" y="290" as="sourcePoint" />
            <mxPoint x="725" y="290" as="targetPoint" />
            <Array as="points" />
          </mxGeometry>
        </mxCell>
        <mxCell id="e47RRsd97L0ZJmCScvxN-54" value="" style="endArrow=none;html=1;rounded=0;" edge="1" parent="1">
          <mxGeometry width="50" height="50" relative="1" as="geometry">
            <mxPoint x="640" y="320" as="sourcePoint" />
            <mxPoint x="730" y="320" as="targetPoint" />
            <Array as="points">
              <mxPoint x="680" y="320" />
            </Array>
          </mxGeometry>
        </mxCell>
        <mxCell id="e47RRsd97L0ZJmCScvxN-55" value="Customer" style="text;html=1;align=center;verticalAlign=middle;whiteSpace=wrap;rounded=0;" vertex="1" parent="1">
          <mxGeometry x="640" y="290" width="80" height="20" as="geometry" />
        </mxCell>
        <mxCell id="e47RRsd97L0ZJmCScvxN-59" value="" style="endArrow=none;html=1;rounded=0;" edge="1" parent="1">
          <mxGeometry width="50" height="50" relative="1" as="geometry">
            <mxPoint x="665" y="509.76" as="sourcePoint" />
            <mxPoint x="735" y="509.76" as="targetPoint" />
            <Array as="points">
              <mxPoint x="685" y="509.76" />
            </Array>
          </mxGeometry>
        </mxCell>
        <mxCell id="e47RRsd97L0ZJmCScvxN-60" value="" style="endArrow=none;html=1;rounded=0;" edge="1" parent="1">
          <mxGeometry width="50" height="50" relative="1" as="geometry">
            <mxPoint x="665" y="540" as="sourcePoint" />
            <mxPoint x="735" y="540" as="targetPoint" />
            <Array as="points">
              <mxPoint x="705" y="540" />
              <mxPoint x="725" y="540" />
            </Array>
          </mxGeometry>
        </mxCell>
        <mxCell id="e47RRsd97L0ZJmCScvxN-61" value="medicine" style="text;html=1;align=center;verticalAlign=middle;whiteSpace=wrap;rounded=0;" vertex="1" parent="1">
          <mxGeometry x="670" y="512.5" width="60" height="30" as="geometry" />
        </mxCell>
        <mxCell id="e47RRsd97L0ZJmCScvxN-62" value="" style="endArrow=none;html=1;rounded=0;" edge="1" parent="1">
          <mxGeometry width="50" height="50" relative="1" as="geometry">
            <mxPoint x="645" y="640" as="sourcePoint" />
            <mxPoint x="735" y="640" as="targetPoint" />
            <Array as="points">
              <mxPoint x="685" y="640" />
            </Array>
          </mxGeometry>
        </mxCell>
        <mxCell id="e47RRsd97L0ZJmCScvxN-63" value="" style="endArrow=none;html=1;rounded=0;" edge="1" parent="1">
          <mxGeometry width="50" height="50" relative="1" as="geometry">
            <mxPoint x="645" y="667.02" as="sourcePoint" />
            <mxPoint x="735" y="667.02" as="targetPoint" />
            <Array as="points">
              <mxPoint x="685" y="667.02" />
            </Array>
          </mxGeometry>
        </mxCell>
        <mxCell id="e47RRsd97L0ZJmCScvxN-64" value="Order" style="text;html=1;align=center;verticalAlign=middle;whiteSpace=wrap;rounded=0;" vertex="1" parent="1">
          <mxGeometry x="660" y="637.5" width="60" height="30" as="geometry" />
        </mxCell>
        <mxCell id="e47RRsd97L0ZJmCScvxN-65" value="" style="endArrow=none;html=1;rounded=0;" edge="1" parent="1">
          <mxGeometry width="50" height="50" relative="1" as="geometry">
            <mxPoint x="645" y="759.52" as="sourcePoint" />
            <mxPoint x="735" y="759.52" as="targetPoint" />
            <Array as="points">
              <mxPoint x="685" y="759.52" />
              <mxPoint x="730" y="759.52" />
            </Array>
          </mxGeometry>
        </mxCell>
        <mxCell id="e47RRsd97L0ZJmCScvxN-66" value="" style="endArrow=none;html=1;rounded=0;" edge="1" parent="1">
          <mxGeometry width="50" height="50" relative="1" as="geometry">
            <mxPoint x="640" y="790" as="sourcePoint" />
            <mxPoint x="730" y="790" as="targetPoint" />
            <Array as="points">
              <mxPoint x="680" y="790" />
            </Array>
          </mxGeometry>
        </mxCell>
        <mxCell id="e47RRsd97L0ZJmCScvxN-67" value="Payment" style="text;html=1;align=center;verticalAlign=middle;whiteSpace=wrap;rounded=0;" vertex="1" parent="1">
          <mxGeometry x="650" y="765" width="60" height="30" as="geometry" />
        </mxCell>
        <mxCell id="e47RRsd97L0ZJmCScvxN-72" value="" style="endArrow=none;html=1;rounded=0;" edge="1" parent="1">
          <mxGeometry width="50" height="50" relative="1" as="geometry">
            <mxPoint x="35" y="175" as="sourcePoint" />
            <mxPoint x="38.57" y="175.32287458147323" as="targetPoint" />
          </mxGeometry>
        </mxCell>
        <mxCell id="e47RRsd97L0ZJmCScvxN-77" value="" style="endArrow=classic;html=1;rounded=0;exitX=1.022;exitY=0.656;exitDx=0;exitDy=0;exitPerimeter=0;" edge="1" parent="1">
          <mxGeometry width="50" height="50" relative="1" as="geometry">
            <mxPoint x="382.5" y="389.03999999999996" as="sourcePoint" />
            <mxPoint x="670.5699999999999" y="320" as="targetPoint" />
            <Array as="points">
              <mxPoint x="670.5699999999999" y="390" />
            </Array>
          </mxGeometry>
        </mxCell>
      </root>
    </mxGraphModel>
  </diagram>
</mxfile>
